<svg width="999" height="832" viewBox="0 0 999 832" fill="none" xmlns="http://www.w3.org/2000/svg">
<path d="M608.832 371.409L606.927 370.297L605.298 371.783L583.979 391.222L580.963 393.973L584.488 396.03L648.68 433.5L584.488 470.97L580.963 473.027L583.979 475.778L605.298 495.217L606.927 496.703L608.832 495.591L694.108 445.811C696.446 444.447 698.423 442.665 699.821 440.543C701.226 438.411 702 436 702 433.5C702 431 701.226 428.589 699.821 426.457C698.423 424.335 696.446 422.553 694.108 421.189L608.832 371.409Z" fill="url(#paint0_linear_112_4347)" stroke="white" stroke-width="6"/>
<path d="M388.657 495.662L390.402 496.569L391.93 495.33L415.89 475.89L419.444 473.007L415.383 470.898L343.375 433.5L415.383 396.102L419.444 393.992L415.89 391.11L391.93 371.67L390.402 370.431L388.657 371.338L292.815 421.118C290.247 422.451 288.05 424.204 286.482 426.322L288.873 428.093L286.482 426.322C284.902 428.456 284 430.913 284 433.5C284 436.087 284.902 438.544 286.482 440.678C288.05 442.795 290.247 444.549 292.814 445.882C292.815 445.882 292.815 445.882 292.815 445.882L388.657 495.662Z" fill="url(#paint1_linear_112_4347)" stroke="white" stroke-width="6"/>
<path d="M577.497 166.336L580.344 162.061L575.222 161.681L525.683 158.008L523.936 157.879L522.965 159.337L421.503 311.664L418.656 315.939L423.778 316.319L473.317 319.992L475.064 320.121L476.035 318.663L577.497 166.336Z" fill="url(#paint2_linear_112_4347)" stroke="white" stroke-width="6"/>
<g filter="url(#filter0_ddd_112_4347)">
<path d="M742.43 386.379C729.383 369.146 710.939 357.298 687.096 350.836C656.505 336.116 622.764 325.345 585.875 318.523V162.348C638.51 171.323 680.46 188.377 711.726 213.509C742.992 238.64 758.625 270.953 758.625 310.445C758.625 343.835 757.275 373.993 754.576 400.92C752.327 396.611 748.278 391.764 742.43 386.379ZM256.57 385.84C250.722 391.585 246.673 396.611 244.424 400.92C241.725 373.993 240.375 343.835 240.375 310.445C240.375 271.671 256.12 239.718 287.611 214.586C319.102 189.454 360.94 172.221 413.125 162.886V318.523C376.236 325.345 342.495 336.116 311.904 350.836C288.061 357.298 269.617 368.966 256.57 385.84ZM348.344 517.782C378.035 517.782 403.453 509.345 424.597 492.471C445.741 475.597 456.312 455.312 456.312 431.616C456.312 414.383 450.577 398.855 439.105 385.033C427.633 371.21 412.675 360.709 394.23 353.528C429.32 347.784 464.41 344.912 499.5 344.912C534.14 344.912 569.23 347.784 604.77 353.528C585.875 360.709 570.804 371.3 559.558 385.302C548.311 399.304 542.688 414.742 542.688 431.616C542.688 455.312 553.259 475.597 574.403 492.471C595.547 509.345 620.965 517.782 650.656 517.782C679.898 517.782 704.978 509.614 725.897 493.279C746.816 476.943 757.725 457.286 758.625 434.309L845 655.647C837.352 655.647 825.093 654.032 808.223 650.8C791.353 647.569 768.41 642.812 739.393 636.529C710.376 630.246 685.521 625.13 664.827 621.181C639.634 643.8 610.843 660.943 578.452 672.611C546.062 684.279 519.744 690.114 499.5 690.114C479.256 690.114 452.938 684.279 420.548 672.611C388.157 660.943 359.366 643.8 334.173 621.181C313.479 625.13 288.736 630.246 259.944 636.529C231.153 642.812 208.209 647.569 191.114 650.8C174.019 654.032 161.648 655.647 154 655.647L240.375 434.309C241.275 457.286 252.184 476.943 273.103 493.279C294.022 509.614 319.102 517.782 348.344 517.782ZM391.531 621.181H607.469C613.317 621.181 618.378 619.476 622.652 616.065C626.926 612.654 629.062 608.615 629.062 603.948C627.713 601.435 625.913 598.921 623.664 596.408L542.688 483.316H456.312L375.336 596.408L369.938 603.948C369.938 608.615 372.074 612.654 376.348 616.065C380.622 619.476 385.683 621.181 391.531 621.181ZM521.094 517.782L564.281 586.715H434.719L477.906 517.782H521.094Z" fill="url(#paint3_linear_112_4347)"/>
<path d="M740.038 388.19L740.2 388.404L740.398 388.586C746.132 393.866 749.897 398.44 751.917 402.308L756.56 411.202L757.561 401.219C760.272 374.173 761.625 343.912 761.625 310.445C761.625 270.027 745.567 236.861 713.606 211.17C681.831 185.63 639.357 168.425 586.379 159.39L582.875 158.793V162.348V318.523V321.019L585.329 321.473C621.984 328.251 655.467 338.946 685.795 353.539L686.044 353.659L686.311 353.731C709.609 360.046 727.449 371.56 740.038 388.19ZM258.673 387.981L258.819 387.837L258.944 387.675C271.529 371.398 289.373 360.051 312.689 353.731L312.956 353.659L313.205 353.539C343.533 338.946 377.016 328.251 413.671 321.473L416.125 321.019V318.523V162.886V159.302L412.597 159.933C360.07 169.329 317.725 186.715 285.74 212.241C253.568 237.916 237.375 270.718 237.375 310.445C237.375 343.912 238.728 374.173 241.439 401.219L242.44 411.202L247.083 402.308C249.121 398.404 252.917 393.634 258.673 387.981ZM393.746 350.568L382.912 352.341L393.142 356.324C411.161 363.339 425.683 373.557 436.796 386.949C447.842 400.257 453.312 415.114 453.312 431.616C453.312 454.263 443.27 473.73 422.725 490.126C402.166 506.534 377.426 514.782 348.344 514.782C319.699 514.782 295.287 506.796 274.949 490.914C254.607 475.028 244.232 456.146 243.373 434.191L237.58 433.218L151.205 654.557L149.609 658.647H154C161.953 658.647 174.565 656.982 191.671 653.748C208.806 650.509 231.781 645.746 260.584 639.46C288.687 633.328 312.918 628.31 333.281 624.406C358.501 646.797 387.258 663.808 419.531 675.434C452.053 687.149 478.749 693.114 499.5 693.114C520.251 693.114 546.947 687.149 579.469 675.434C611.742 663.808 640.499 646.797 665.719 624.406C686.089 628.31 710.434 633.328 738.758 639.461C767.784 645.746 790.754 650.509 807.659 653.747C824.544 656.981 837.045 658.647 845 658.647H849.391L847.795 654.557L761.42 433.218L755.627 434.191C754.768 456.146 744.393 475.028 724.051 490.914C703.713 506.796 679.301 514.782 650.656 514.782C621.574 514.782 596.834 506.534 576.275 490.126C555.73 473.73 545.688 454.263 545.688 431.616C545.688 415.471 551.048 400.687 561.897 387.181C572.768 373.645 587.376 363.348 605.835 356.333L616.305 352.354L605.248 350.567C569.556 344.798 534.306 341.912 499.5 341.912C464.246 341.912 428.994 344.797 393.746 350.568ZM621.225 598.155L621.32 598.287L621.429 598.409C623.335 600.539 624.864 602.631 626.04 604.683C625.835 607.983 624.224 610.972 620.781 613.72C617.077 616.676 612.688 618.181 607.469 618.181H391.531C386.312 618.181 381.923 616.676 378.219 613.72C374.838 611.022 373.224 608.091 372.973 604.862L377.775 598.155L457.854 486.316H541.146L621.225 598.155ZM523.636 516.189L522.754 514.782H521.094H477.906H476.246L475.364 516.189L432.176 585.122L429.299 589.715H434.719H564.281H569.701L566.824 585.122L523.636 516.189Z" stroke="url(#paint4_linear_112_4347)" stroke-width="6"/>
</g>
<defs>
<filter id="filter0_ddd_112_4347" x="0.217773" y="0.238037" width="998.564" height="830.876" filterUnits="userSpaceOnUse" color-interpolation-filters="sRGB">
<feFlood flood-opacity="0" result="BackgroundImageFix"/>
<feColorMatrix in="SourceAlpha" type="matrix" values="0 0 0 0 0 0 0 0 0 0 0 0 0 0 0 0 0 0 127 0" result="hardAlpha"/>
<feOffset dy="-0.66501"/>
<feGaussianBlur stdDeviation="4.82132"/>
<feColorMatrix type="matrix" values="0 0 0 0 1 0 0 0 0 1 0 0 0 0 1 0 0 0 0.30292 0"/>
<feBlend mode="normal" in2="BackgroundImageFix" result="effect1_dropShadow_112_4347"/>
<feColorMatrix in="SourceAlpha" type="matrix" values="0 0 0 0 0 0 0 0 0 0 0 0 0 0 0 0 0 0 127 0" result="hardAlpha"/>
<feOffset dy="-2.23363"/>
<feGaussianBlur stdDeviation="16.1938"/>
<feColorMatrix type="matrix" values="0 0 0 0 1 0 0 0 0 1 0 0 0 0 1 0 0 0 0.44708 0"/>
<feBlend mode="normal" in2="effect1_dropShadow_112_4347" result="effect2_dropShadow_112_4347"/>
<feColorMatrix in="SourceAlpha" type="matrix" values="0 0 0 0 0 0 0 0 0 0 0 0 0 0 0 0 0 0 127 0" result="hardAlpha"/>
<feOffset dy="-10"/>
<feGaussianBlur stdDeviation="72.5"/>
<feColorMatrix type="matrix" values="0 0 0 0 1 0 0 0 0 1 0 0 0 0 1 0 0 0 0.75 0"/>
<feBlend mode="normal" in2="effect2_dropShadow_112_4347" result="effect3_dropShadow_112_4347"/>
<feBlend mode="normal" in="SourceGraphic" in2="effect3_dropShadow_112_4347" result="shape"/>
</filter>
<linearGradient id="paint0_linear_112_4347" x1="586" y1="433.5" x2="699" y2="433.5" gradientUnits="userSpaceOnUse">
<stop stop-color="#D4FC79"/>
<stop offset="1" stop-color="#96E6A1"/>
</linearGradient>
<linearGradient id="paint1_linear_112_4347" x1="287" y1="433.5" x2="414" y2="433.5" gradientUnits="userSpaceOnUse">
<stop stop-color="#D4FC79"/>
<stop offset="1" stop-color="#96E6A1"/>
</linearGradient>
<linearGradient id="paint2_linear_112_4347" x1="424" y1="239" x2="575" y2="239" gradientUnits="userSpaceOnUse">
<stop stop-color="#D4FC79"/>
<stop offset="1" stop-color="#96E6A1"/>
</linearGradient>
<linearGradient id="paint3_linear_112_4347" x1="154" y1="426.231" x2="845" y2="426.231" gradientUnits="userSpaceOnUse">
<stop stop-color="#D4FC79"/>
<stop offset="1" stop-color="#96E6A1"/>
</linearGradient>
<linearGradient id="paint4_linear_112_4347" x1="499.5" y1="162.348" x2="499.5" y2="690.114" gradientUnits="userSpaceOnUse">
<stop stop-color="white"/>
<stop offset="1" stop-color="#F6FFE2"/>
</linearGradient>
</defs>
</svg>
